<svg width="40" height="40" viewBox="0 0 40 40" fill="none" xmlns="http://www.w3.org/2000/svg">
	<path d="M35.5419 8.45139H26.9532V7.31717C26.9532 6.88569 26.6033 6.53592 26.1719 6.53592C25.7405 6.53592 25.3907 6.88569 25.3907 7.31717V8.45139H14.6094V7.31717C14.6094 6.40615 15.3506 5.66498 16.2616 5.66498H21.0938C21.5252 5.66498 21.875 5.31521 21.875 4.88373C21.875 4.45224 21.5252 4.10248 21.0938 4.10248H16.2616C14.489 4.1024 13.0469 5.54451 13.0469 7.31717V8.45139H4.45813C1.99993 8.45139 0 10.463 0 12.9355V31.4411C0 33.8995 1.99993 35.8994 4.45813 35.8994H35.5419C38.0002 35.8994 40 33.8995 40 31.4413V12.9355C40 10.463 38.0001 8.45139 35.5419 8.45139ZM9.60939 34.2979H6.56251V17.3447C6.56251 16.9132 6.21267 16.5634 5.78126 16.5634C5.34985 16.5634 5.00001 16.9132 5.00001 17.3447V34.3369H4.45813C2.86149 34.3369 1.5625 33.0378 1.5625 31.4412V12.9355C1.5625 11.3245 2.86149 10.0138 4.45813 10.0138H5.78126H9.60939V34.2979ZM33.4376 34.2979H11.1719V10.0139H28.8282V26.9541C28.8282 27.3856 29.178 27.7353 29.6094 27.7353C30.0408 27.7353 30.3907 27.3856 30.3907 26.9541V10.0139H33.4376V34.2979ZM38.4376 31.4412C38.4376 33.0379 37.1386 34.3368 35.5419 34.3368H35.0001V10.0139H35.5419C37.1387 10.0139 38.4376 11.3246 38.4376 12.9356V31.4412Z" fill="url(#paint0_linear)"/>
	<path d="M23.75 5.66397H25.1447C25.5761 5.66397 25.9259 5.31421 25.9259 4.88272C25.9259 4.45124 25.5761 4.10147 25.1447 4.10147H23.75C23.3186 4.10147 22.9688 4.45124 22.9688 4.88272C22.9688 5.31421 23.3186 5.66397 23.75 5.66397Z" fill="url(#paint1_linear)"/>
	<path d="M26.4298 19.1697L24.3985 19.7405C23.9831 19.8572 23.741 20.2885 23.8577 20.7039C23.9744 21.1193 24.4059 21.3615 24.8212 21.2447L25.0366 21.1841L22.9894 24.8316L22.6069 25.5129C22.3958 25.8891 22.5296 26.3654 22.9058 26.5766C23.0268 26.6445 23.158 26.6767 23.2876 26.6767C23.5609 26.6767 23.8262 26.533 23.9695 26.2777L27.3223 20.3043C27.477 20.0287 27.4505 19.6872 27.2551 19.4388C27.0597 19.1905 26.7341 19.0842 26.4298 19.1697Z" fill="url(#paint2_linear)"/>
	<path d="M23.4086 20.8301C23.292 20.4146 22.8604 20.1724 22.4452 20.2893L21.7664 20.48C21.351 20.5967 21.1089 21.0281 21.2256 21.4434C21.3224 21.7882 21.636 22.0135 21.9773 22.0135C22.0473 22.0135 22.1184 22.0041 22.1891 21.9842L22.8678 21.7935C23.2832 21.6769 23.5253 21.2456 23.4086 20.8301Z" fill="url(#paint3_linear)"/>
	<path d="M17.0321 13.6193C17.1565 13.6193 17.2827 13.5895 17.4001 13.5267L17.8856 13.2669C18.266 13.0633 18.4094 12.5898 18.2058 12.2094C18.0023 11.829 17.5288 11.6856 17.1483 11.8892L16.6628 12.1491C16.2823 12.3527 16.139 12.8261 16.3426 13.2066C16.4834 13.4696 16.7533 13.6193 17.0321 13.6193Z" fill="url(#paint4_linear)"/>
	<path d="M13.3162 15.6083C13.4406 15.6083 13.5668 15.5785 13.6842 15.5157L15.5253 14.5303C15.9057 14.3267 16.049 13.8532 15.8454 13.4728C15.6419 13.0924 15.1684 12.9491 14.788 13.1527L12.9469 14.1381C12.5665 14.3417 12.4232 14.8152 12.6268 15.1956C12.7676 15.4586 13.0374 15.6083 13.3162 15.6083Z" fill="url(#paint5_linear)"/>
	<path d="M19.3966 16.0909L15.195 18.3397C14.8146 18.5433 14.6712 19.0167 14.8749 19.3971C15.0157 19.6601 15.2855 19.8098 15.5643 19.8098C15.6887 19.8098 15.815 19.7801 15.9323 19.7172L20.1339 17.4685C20.5143 17.2649 20.6577 16.7914 20.4541 16.411C20.2505 16.0307 19.777 15.8874 19.3966 16.0909Z" fill="url(#paint6_linear)"/>
	<path d="M5 12.2656V14.2187C5 14.6501 5.34984 14.9999 5.78125 14.9999C6.21266 14.9999 6.5625 14.6502 6.5625 14.2187V12.2656C6.5625 11.8341 6.21266 11.4843 5.78125 11.4843C5.34984 11.4843 5 11.8341 5 12.2656Z" fill="url(#paint7_linear)"/>
	<path d="M29.6094 29.2969C29.178 29.2969 28.8281 29.6467 28.8281 30.0782V32.0313C28.8281 32.4628 29.178 32.8126 29.6094 32.8126C30.0408 32.8126 30.3906 32.4628 30.3906 32.0313V30.0782C30.3906 29.6467 30.0408 29.2969 29.6094 29.2969Z" fill="url(#paint8_linear)"/>
	<path d="M16.2109 31.0157C15.1555 31.0157 14.2969 30.157 14.2969 29.1016C14.2969 28.7086 14.0063 28.3843 13.6284 28.3294C13.5915 28.324 13.554 28.3204 13.5156 28.3204C13.0842 28.3204 12.7344 28.6701 12.7344 29.1016C12.7344 31.0187 14.294 32.5782 16.2109 32.5782C16.6424 32.5782 16.9922 32.2284 16.9922 31.7969C16.9922 31.7585 16.9885 31.721 16.9831 31.6841C16.9283 31.3062 16.604 31.0157 16.2109 31.0157Z" fill="url(#paint9_linear)"/>
	<path d="M16.2109 25.625C15.7795 25.625 15.4297 25.9748 15.4297 26.4063C15.4297 26.4447 15.4334 26.4822 15.4387 26.5191C15.4936 26.897 15.8179 27.1875 16.2109 27.1875C17.2664 27.1875 18.125 28.0462 18.125 29.1016C18.125 29.4946 18.4156 29.8189 18.7934 29.8738C18.8304 29.8792 18.8679 29.8829 18.9063 29.8829C19.3377 29.8829 19.6875 29.5331 19.6875 29.1016C19.6875 27.1845 18.1279 25.625 16.2109 25.625Z" fill="url(#paint10_linear)"/>
	<defs>
		<linearGradient id="paint0_linear" x1="20" y1="4.10248" x2="20" y2="35.8994" gradientUnits="userSpaceOnUse">
			<stop offset="0" stop-color="#686BFF"/>
			<stop offset="1" stop-color="#68B5FF"/>
		</linearGradient>
		<linearGradient id="paint1_linear" x1="24.4473" y1="4.10147" x2="24.4473" y2="5.66397" gradientUnits="userSpaceOnUse">
			<stop offset="0" stop-color="#686BFF"/>
			<stop offset="1" stop-color="#68B5FF"/>
		</linearGradient>
		<linearGradient id="paint2_linear" x1="24.9646" y1="19.1405" x2="24.9646" y2="26.6767" gradientUnits="userSpaceOnUse">
			<stop offset="0" stop-color="#686BFF"/>
			<stop offset="1" stop-color="#68B5FF"/>
		</linearGradient>
		<linearGradient id="paint3_linear" x1="22.3171" y1="20.2599" x2="22.3171" y2="22.0135" gradientUnits="userSpaceOnUse">
			<stop offset="0" stop-color="#686BFF"/>
			<stop offset="1" stop-color="#68B5FF"/>
		</linearGradient>
		<linearGradient id="paint4_linear" x1="17.2742" y1="11.7966" x2="17.2742" y2="13.6193" gradientUnits="userSpaceOnUse">
			<stop offset="0" stop-color="#686BFF"/>
			<stop offset="1" stop-color="#68B5FF"/>
		</linearGradient>
		<linearGradient id="paint5_linear" x1="14.2361" y1="13.0601" x2="14.2361" y2="15.6083" gradientUnits="userSpaceOnUse">
			<stop offset="0" stop-color="#686BFF"/>
			<stop offset="1" stop-color="#68B5FF"/>
		</linearGradient>
		<linearGradient id="paint6_linear" x1="17.6645" y1="15.9984" x2="17.6645" y2="19.8098" gradientUnits="userSpaceOnUse">
			<stop offset="0" stop-color="#686BFF"/>
			<stop offset="1" stop-color="#68B5FF"/>
		</linearGradient>
		<linearGradient id="paint7_linear" x1="5.78125" y1="11.4843" x2="5.78125" y2="14.9999" gradientUnits="userSpaceOnUse">
			<stop offset="0" stop-color="#686BFF"/>
			<stop offset="1" stop-color="#68B5FF"/>
		</linearGradient>
		<linearGradient id="paint8_linear" x1="29.6094" y1="29.2969" x2="29.6094" y2="32.8126" gradientUnits="userSpaceOnUse">
			<stop offset="0" stop-color="#686BFF"/>
			<stop offset="1" stop-color="#68B5FF"/>
		</linearGradient>
		<linearGradient id="paint9_linear" x1="14.8633" y1="28.3204" x2="14.8633" y2="32.5782" gradientUnits="userSpaceOnUse">
			<stop offset="0" stop-color="#686BFF"/>
			<stop offset="1" stop-color="#68B5FF"/>
		</linearGradient>
		<linearGradient id="paint10_linear" x1="17.5586" y1="25.625" x2="17.5586" y2="29.8829" gradientUnits="userSpaceOnUse">
			<stop offset="0" stop-color="#686BFF"/>
			<stop offset="1" stop-color="#68B5FF"/></linearGradient></defs></svg>
